<?xml version="1.0" encoding="utf-8"?>
<!-- Generator: Adobe Illustrator 25.2.0, SVG Export Plug-In . SVG Version: 6.00 Build 0)  -->
<svg version="1.1" id="Layer_3" xmlns="http://www.w3.org/2000/svg" xmlns:xlink="http://www.w3.org/1999/xlink" x="0px" y="0px"
	 viewBox="0 0 424.9 398.5" style="enable-background:new 0 0 424.9 398.5;" xml:space="preserve">
<style type="text/css">
	.st0{fill:url(#SVGID_1_);}
</style>
<g>
	<path d="M233.9,49.8c-12.9-6.3-21.4-10.2-21.4-10.2c-17-7.6-50-18.2-86.5-8.4c-33.7,9.1-62,33.3-84.2,72c-0.3,0.4-0.5,0.8-0.8,1.3
		c-21.8,40.8-27.4,78.8-16.9,112.8c11.3,36.1,38.5,58.4,54.3,68.8l-26.8,49.4l56.6,30.8l0,0l20.8,11.3l0,0l147-270.2l29.4-54.1
		l35.8,19.5l-26.8,49.2l10.7,5.6c6.8,3.5,41.1,22.9,53,61c8.6,27.6,3.6,59.3-14.9,94.2l-0.5,0.8c-18.9,33.2-42.5,53.8-70,61.2
		c-39.5,10.6-75.3-9.2-79.3-11.5l-10.5-6.1L191,348.7c12.9,6.4,21.4,10.2,21.4,10.2c17,7.6,49.9,18.3,86.4,8.4
		c33.7-9.1,62-33.3,84.2-72c0.2-0.4,0.5-0.8,0.8-1.3c21.8-40.8,27.5-78.7,16.9-112.7c-11.3-36.2-38.5-58.5-54.3-68.8l26.9-49.4
		l-56.6-30.8l0,0l-20.8-11.3l0,0L148.9,291.3l-29.4,54.1L83.7,326l26.8-49.2l-10.7-5.5c-6.8-3.5-41.1-22.9-53-61
		c-8.6-27.6-3.6-59.3,14.9-94.2l0.5-0.8c19-33.2,42.5-53.8,70-61.2c39.5-10.6,75.3,9.2,79.3,11.5"/>
	<linearGradient id="SVGID_1_" gradientUnits="userSpaceOnUse" x1="11.0765" y1="199.2722" x2="413.828" y2="199.2722">
		<stop  offset="0" style="stop-color:#A465F0"/>
		<stop  offset="1" style="stop-color:#7C57A8"/>
	</linearGradient>
	<path class="st0" d="M132.2,388.3l-91.4-49.7L68,288.5c-16.7-12.1-40.8-34.6-51.4-68.9c-11.2-36.1-5.3-76.2,17.5-118.9
		c0.3-0.5,0.6-1.1,1-1.7C58.3,58.5,88.2,33,124,23.4c39.1-10.5,74.3,1,91.8,8.9c0.4,0.2,8.8,4,21.6,10.3l7.5,3.7l-19.8,36.4
		l-17.7-10.2c-3.7-2.1-36.8-20.5-73.2-10.7c-25.4,6.8-47.3,26.2-65.1,57.5l-0.4,0.7c-17.4,32.9-22.2,62.4-14.3,87.9
		c11,35.1,42.8,53,49,56.3l18,9.3l-26.8,49.4l21.7,11.8l25.6-47.1L292.6,10.2l27.8,15.1l63.6,34.6L356.8,110
		c16.7,12.1,40.8,34.6,51.4,68.9v0c11.3,36.1,5.4,76.1-17.5,118.9l0,0.1c-0.3,0.6-0.6,1.1-0.9,1.6c-23.2,40.5-53.2,66-88.9,75.6
		c-39.2,10.5-74.3-1-91.8-8.9c-0.4-0.2-8.8-4-21.6-10.3l-7.5-3.7l19.9-36.3l17.6,10.2c3.7,2.1,36.8,20.5,73.2,10.7
		c25.4-6.8,47.3-26.1,65.1-57.4l0.4-0.7c17.4-32.9,22.2-62.5,14.3-88c-11-35.1-42.8-53-49-56.3l-18-9.3l26.9-49.4L308.6,64L283,111
		L132.2,388.3z"/>
</g>
</svg>
