<?xml version="1.0" encoding="utf-8"?>
<!-- Generator: Adobe Illustrator 25.2.0, SVG Export Plug-In . SVG Version: 6.00 Build 0)  -->
<svg version="1.1" id="Layer_1" xmlns="http://www.w3.org/2000/svg" xmlns:xlink="http://www.w3.org/1999/xlink" x="0px" y="0px"
	 viewBox="0 0 38.2 32" style="enable-background:new 0 0 38.2 32;" xml:space="preserve">
<style type="text/css">
	.st0{fill-rule:evenodd;clip-rule:evenodd;fill:#CDB4F4;}
</style>
<path class="st0" d="M2.9,1.9l14.9,10.7c0.4,0.3,0.8,0.4,1.2,0.4c0.4,0,0.9-0.1,1.2-0.4l0,0L35.3,1.9L37,4.3L22.1,15c0,0,0,0,0,0
	c-0.9,0.6-1.9,1-3,1c-1.1,0-2.1-0.3-3-1c0,0,0,0,0,0L1.2,4.3L2.9,1.9z"/>
<path class="st0" d="M34.2,3H4C3.4,3,3,3.4,3,4v24c0,0.6,0.4,1,1,1h30.2c0.6,0,1-0.4,1-1V4C35.2,3.4,34.7,3,34.2,3z M4,0
	C1.8,0,0,1.8,0,4v24c0,2.2,1.8,4,4,4h30.2c2.2,0,4-1.8,4-4V4c0-2.2-1.8-4-4-4H4z"/>
</svg>
