<?xml version="1.0" encoding="utf-8"?>
<!-- Generator: Adobe Illustrator 25.2.0, SVG Export Plug-In . SVG Version: 6.00 Build 0)  -->
<svg version="1.1" id="Layer_1" xmlns="http://www.w3.org/2000/svg" xmlns:xlink="http://www.w3.org/1999/xlink" x="0px" y="0px"
	 viewBox="0 0 37.1 31.2" style="enable-background:new 0 0 37.1 31.2;" xml:space="preserve">
<style type="text/css">
	.st0{fill-rule:evenodd;clip-rule:evenodd;fill:#CDB4F4;stroke:#CDB4F4;stroke-width:0.8;stroke-miterlimit:10;}
</style>
<path class="st0" d="M3.2,3.2l14.2,10.1c0.4,0.3,0.8,0.4,1.2,0.4c0.4,0,0.8-0.1,1.2-0.4l0,0L33.9,3.2l1.7,2.3L21.4,15.6l0,0
	c-0.8,0.6-1.8,0.9-2.8,0.9s-2-0.3-2.8-0.9l0,0L1.6,5.5L3.2,3.2z"/>
<path class="st0" d="M32.9,3.2H4.2c-0.5,0-0.9,0.4-0.9,1V27c0,0.5,0.4,0.9,0.9,0.9h28.7c0.5,0,0.9-0.4,0.9-0.9V4.2
	C33.9,3.6,33.4,3.2,32.9,3.2z M4.2,0.4c-2.1,0-3.8,1.7-3.8,3.8V27c0,2.1,1.7,3.8,3.8,3.8h28.7c2.1,0,3.8-1.7,3.8-3.8V4.2
	c0-2.1-1.7-3.8-3.8-3.8C32.9,0.4,4.2,0.4,4.2,0.4z"/>
</svg>
