<?xml version="1.0" encoding="utf-8"?>
<!-- Generator: Adobe Illustrator 25.2.0, SVG Export Plug-In . SVG Version: 6.00 Build 0)  -->
<svg version="1.1" id="Layer_3" xmlns="http://www.w3.org/2000/svg" xmlns:xlink="http://www.w3.org/1999/xlink" x="0px" y="0px"
	 viewBox="0 0 424.9 398.5" style="enable-background:new 0 0 424.9 398.5;" xml:space="preserve">
<style type="text/css">
	.st0{fill:#2D1C50;stroke:#2D1C50;stroke-width:16;stroke-miterlimit:10;}
</style>
<path class="st0" d="M400.6,181.3c-11.3-36.2-38.5-58.5-54.3-68.8l26.9-49.4l-56.6-30.8l0,0L295.8,21l0,0L148.9,291.3l-29.4,54.1
	L83.7,326l26.8-49.2l-10.7-5.5c-6.8-3.5-41.1-22.9-53-61c-8.6-27.6-3.6-59.3,14.9-94.2l0.5-0.8c19-33.2,42.5-53.8,70-61.2
	c39.5-10.6,75.3,9.2,79.3,11.5l10.5,6.1l11.9-21.9c-12.9-6.3-21.4-10.2-21.4-10.2c-17-7.6-50-18.2-86.5-8.4
	c-33.7,9.1-62,33.3-84.2,72c-0.3,0.4-0.5,0.8-0.8,1.3c-21.8,40.8-27.4,78.8-16.9,112.8c11.3,36.1,38.5,58.4,54.3,68.8l-26.8,49.4
	l56.6,30.8l0,0l20.8,11.3l0,0l147-270.2l29.4-54.1l35.8,19.5L314.4,122l10.7,5.6c6.8,3.5,41.1,22.9,53,61
	c8.6,27.6,3.6,59.3-14.9,94.2l-0.5,0.8c-18.9,33.2-42.5,53.8-70,61.2c-39.5,10.6-75.3-9.2-79.3-11.5l-10.5-6.1L191,348.7
	c12.9,6.4,21.4,10.2,21.4,10.2c17,7.6,49.9,18.3,86.4,8.4c33.7-9.1,62-33.3,84.2-72c0.2-0.4,0.5-0.8,0.8-1.3
	C405.5,253.3,411.2,215.4,400.6,181.3z"/>
</svg>
